/* XPM */
static char *_c2acd4b281645fdee942badbebd8f329yxrpSebNeZDHYpo[] = {
/* columns rows colors chars-per-pixel */
"100 100 2 1 ",
"  c black",
". c white",
/* pixels */
"....................................................................................................",
".                                                                                                  .",
".                                                                                                  .",
".                                                                                                  .",
".                                                                                                  .",
".                                                                                                  .",
".                                                                                                  .",
".                                                                                                  .",
".                                                                                                  .",
".                                                                                                  .",
".                                                                                                  .",
".                                                                                                  .",
".                                                                                                  .",
".                                                                                                  .",
".                                                                                                  .",
".                                                                                                  .",
".                                                                                                  .",
".                                                                                                  .",
".                                                                                                  .",
".                                                                                                  .",
".                                                                                                  .",
".                                                                                                  .",
".                                                                                                  .",
".                                                                                                  .",
".                                                                                                  .",
".                                                                                                  .",
".                                                                                                  .",
".                                                                                                  .",
".                                                                                                  .",
".                                                                                                  .",
".                                                                                                  .",
".                                                                                                  .",
".                                                                                                  .",
".                                                                                                  .",
".                                                                                                  .",
".                                                                                                  .",
".                                                                                                  .",
".                                                                                                  .",
".                                                                                                  .",
".                                                                                                  .",
".                                                                                                  .",
".                                                                                                  .",
".                                                                                                  .",
".                                                                                                  .",
".                                                                                                  .",
".                                                                                                  .",
".                                                                                                  .",
".                                                                                                  .",
".                                                                                                  .",
".                                                                                                  .",
".                                                                                                  .",
".                                                                                                  .",
".                                                                                                  .",
".                                                                                                  .",
".                                                                                                  .",
".                                                                                                  .",
".                                                                                                  .",
".                                                                                                  .",
".                                                                                                  .",
".                                                                                                  .",
".                                                                                                  .",
".                                                                                                  .",
".                                                                                                  .",
".                                                                                                  .",
".                                                                                                  .",
".                                                                                                  .",
".                                                                                                  .",
".                                                                                                  .",
".                                                                                                  .",
".                                                                                                  .",
".                                                                                                  .",
".                                                                                                  .",
".                                                                                                  .",
".                                                                                                  .",
".                                                                                                  .",
".                                                                                                  .",
".                                                                                                  .",
".                                                                                                  .",
".                                                                                                  .",
".                                                                                                  .",
".                                                                                                  .",
".                                                                                                  .",
".                                                                                                  .",
".                                                                                                  .",
".                                                                                                  .",
".                                                                                                  .",
".                                                                                                  .",
".                                                                                                  .",
".                                                                                                  .",
".                                                                                                  .",
".                                                                                                  .",
".                                                                                                  .",
".                                                                                                  .",
".                                                                                                  .",
".                                                                                                  .",
".                                                                                                  .",
".                                                                                                  .",
".                                                                                                  .",
".                                                                                                  .",
"...................................................................................................."
};
